<svg width="22" height="22" viewBox="0 0 22 22" fill="none" xmlns="http://www.w3.org/2000/svg">
<path fill-rule="evenodd" clip-rule="evenodd" d="M18.9837 0.32853C18.604 0.505321 17.5184 1.36154 16.571 2.23128C15.6237 3.10102 14.7878 3.81269 14.7137 3.81269C14.6395 3.81269 12.6132 3.46171 10.2106 3.03273C7.80802 2.60376 5.62998 2.25278 5.3706 2.25278C5.04875 2.25278 4.64165 2.49768 4.08924 3.02372C3.3734 3.70541 3.30955 3.82396 3.53838 4.04685C3.68076 4.18551 5.33091 5.09685 7.20557 6.07215C9.08006 7.04727 10.6139 7.93625 10.6139 8.0477C10.6139 8.15914 9.6461 9.21105 8.46329 10.3855L6.31285 12.5208L4.96867 12.3721C2.20543 12.0664 2.12156 12.0855 0.919927 13.2923C0.0311741 14.1849 -0.110854 14.4061 0.0667241 14.621C0.183902 14.7628 1.30425 15.1228 2.55627 15.4211C5.43272 16.1061 5.71264 16.2191 5.93008 16.7836C6.02793 17.0375 6.32061 18.2203 6.58051 19.4119C6.84023 20.6035 7.12584 21.676 7.21506 21.7951C7.52949 22.2149 7.99975 22.0017 8.8709 21.0444C9.7355 20.0942 9.75086 20.0584 9.73843 19.0079C9.73153 18.4198 9.66785 17.5304 9.59709 17.0314C9.52634 16.5324 9.52858 16.0255 9.60193 15.9048C9.67544 15.7842 10.6891 14.7326 11.8545 13.5681C13.2546 12.1693 14.0317 11.5092 14.1447 11.6227C14.2388 11.7171 15.0942 13.2932 16.0458 15.1252C17.1931 17.3342 17.8804 18.4757 18.0868 18.5151C18.4836 18.5905 19.5133 17.5114 19.6302 16.8976C19.678 16.6461 19.3635 14.3863 18.9312 11.8757L18.1453 7.3109L19.7465 5.54264C21.4589 3.65116 21.9939 2.73323 21.9999 1.67613C22.0029 1.17106 21.8835 0.892007 21.4993 0.506188C20.8932 -0.102527 20.0392 -0.162844 18.9837 0.32853Z" fill="#1E46A4"/>
</svg>
