<svg width="26" height="24" viewBox="0 0 26 24" fill="none" xmlns="http://www.w3.org/2000/svg">
<path fill-rule="evenodd" clip-rule="evenodd" d="M10.5609 0.0262689C7.06836 0.282185 3.97334 2.29211 2.31612 5.38044C1.76892 6.40013 1.33286 7.76986 1.21313 8.84489C1.13576 9.53952 1.12128 9.60928 1.05468 9.60928C0.933478 9.60928 0.505853 9.9797 0.334508 10.2331C-0.00472672 10.7348 -0.0118894 10.8032 0.00502667 13.3889L0.0201648 15.6989L0.156306 15.9903C0.332273 16.3669 0.683599 16.7409 1.02187 16.9117C1.36283 17.0839 1.82038 17.1489 2.69981 17.1502L3.39829 17.1512V13.2783V9.40544H3.0427C2.62605 9.40544 2.64119 9.44326 2.76686 8.7175C3.23696 6.00245 4.95132 3.68508 7.38601 2.47373C9.02107 1.66017 9.91153 1.50678 12.9993 1.50678C14.8667 1.50678 15.7662 1.55953 16.495 1.71169C17.9346 2.01235 19.4254 2.77113 20.4803 3.74017C21.9817 5.11938 22.889 6.76851 23.2366 8.75042C23.3572 9.43785 23.3712 9.40544 22.9559 9.40544H22.6003V13.2783V17.1512L23.2988 17.1502C24.5562 17.1484 25.0201 17.0173 25.4676 16.5375C25.5988 16.3968 25.7674 16.1505 25.8423 15.9903L25.9784 15.6989L25.9944 13.4057C26.0084 11.3898 26.0001 11.0742 25.9254 10.7947C25.8188 10.3957 25.5238 9.97568 25.2049 9.76909C24.847 9.53712 24.8354 9.52219 24.8352 9.2888C24.8349 8.96154 24.6971 8.16979 24.5312 7.54258C23.5966 4.00903 20.7654 1.20648 17.228 0.313271C16.1788 0.0483342 15.8286 0.0201029 13.3803 0.00308254C12.123 -0.00563147 10.8543 0.00476418 10.5609 0.0262689ZM6.52243 7.08217C5.77812 7.2672 5.19444 7.84951 4.99312 8.60793C4.93633 8.82186 4.92358 9.79375 4.92409 13.8644C4.9245 17.0983 4.94314 18.9384 4.97692 19.0855C5.0966 19.6066 5.50518 20.1653 5.96364 20.4349C6.39995 20.6914 6.60909 20.7184 8.16994 20.7187L9.62116 20.719L10.9165 22.256C11.629 23.1013 12.2747 23.8394 12.3514 23.8961C12.5285 24.0271 12.9317 24.0359 13.1189 23.9128C13.1913 23.8652 13.8358 23.1328 14.5512 22.285L15.8518 20.7438L17.664 20.7181C19.4159 20.6933 19.486 20.6884 19.7716 20.5731C20.2079 20.3969 20.6583 19.9534 20.8773 19.4847L21.0509 19.1132L21.0663 14.0682C21.0773 10.4454 21.0652 8.93708 21.0236 8.7175C20.8696 7.90414 20.2201 7.24009 19.4102 7.06764C19.007 6.98183 6.87111 6.99549 6.52243 7.08217ZM10.1713 10.9018C10.3886 10.9929 10.5993 11.249 10.6412 11.473C10.6869 11.7175 10.5452 12.0743 10.3458 12.2168C10.1076 12.3869 9.71905 12.402 9.49416 12.2499C9.00324 11.918 9.03078 11.2213 9.54562 10.9482C9.79723 10.8147 9.9385 10.8043 10.1713 10.9018ZM16.0639 10.9018C16.2813 10.9929 16.492 11.249 16.5339 11.473C16.5796 11.7175 16.4379 12.0743 16.2384 12.2168C16.0003 12.3869 15.6117 12.402 15.3868 12.2499C14.8959 11.918 14.9234 11.2213 15.4383 10.9482C15.6899 10.8147 15.8312 10.8043 16.0639 10.9018ZM10.268 14.3957C11.4537 15.3498 12.5367 15.6793 13.6999 15.44C14.384 15.2993 15.0032 14.981 15.7288 14.3971C16.1616 14.0488 16.556 14.067 16.8773 14.4501C17.1501 14.7753 17.102 15.1591 16.745 15.5059C16.4323 15.8096 15.8195 16.2346 15.3803 16.4523C13.398 17.4349 11.3733 17.1843 9.49899 15.7244C9.134 15.4401 8.93538 15.1528 8.93538 14.909C8.93538 14.6949 9.12775 14.3749 9.32866 14.255C9.62558 14.0777 9.92931 14.1232 10.268 14.3957Z" fill="#1E46A4"/>
</svg>
