<svg width="20" height="26" viewBox="0 0 20 26" fill="none" xmlns="http://www.w3.org/2000/svg">
<path fill-rule="evenodd" clip-rule="evenodd" d="M9.39692 0.0779695C8.77753 0.242077 8.23407 0.690299 7.95841 1.26432C7.87253 1.44312 7.80225 1.6199 7.80225 1.65712C7.8022 1.7094 7.50099 1.72485 6.47929 1.72485H5.15637L4.99577 1.88321L4.83517 2.04158V3.13203C4.83517 4.34943 4.86659 4.48569 5.17137 4.59048C5.41747 4.67505 14.5825 4.67505 14.8286 4.59048C15.1334 4.48569 15.1648 4.34943 15.1648 3.13203V2.04158L15.0042 1.88321L14.8436 1.72485H13.5207C12.499 1.72485 12.1978 1.7094 12.1977 1.65712C12.1977 1.6199 12.1275 1.44312 12.0416 1.26432C11.5773 0.297448 10.4601 -0.203707 9.39692 0.0779695ZM0.923022 2.91407C0.593901 2.97714 0.30467 3.20209 0.144121 3.51974L0 3.80494L0.000329489 14.3998C0.000494324 21.6556 0.0188463 25.0595 0.0585166 25.2002C0.137308 25.48 0.52 25.8619 0.796703 25.9369C1.10742 26.021 18.8926 26.021 19.2033 25.9369C19.48 25.8619 19.8627 25.48 19.9415 25.2002C19.9812 25.0595 19.9995 21.6542 19.9997 14.3953L20 3.796L19.8465 3.50625C19.7347 3.29533 19.62 3.17196 19.4251 3.05304L19.1572 2.88969L17.7997 2.87138L16.4422 2.85307L16.419 3.68406C16.3978 4.44008 16.3826 4.54302 16.2511 4.82496C16.062 5.23027 15.6851 5.58818 15.2963 5.73159C14.9947 5.84288 14.9369 5.84396 9.92703 5.82971L4.86264 5.81535L4.59214 5.68408C4.2294 5.50805 3.92038 5.19246 3.74709 4.82106C3.6178 4.54399 3.60209 4.43688 3.58115 3.68883L3.55808 2.8626L2.3422 2.86883C1.67352 2.87225 1.03489 2.89262 0.923022 2.91407ZM7.52929 8.63358C7.85352 8.79893 7.9478 9.27614 7.70841 9.54048C7.51027 9.7592 5.35357 11.6781 5.23714 11.7391C5.1711 11.7738 5.01291 11.8021 4.88549 11.8021C4.665 11.8021 4.62549 11.7745 4.05885 11.2239C3.40401 10.5876 3.30126 10.4101 3.40632 10.0964C3.49577 9.82903 3.69824 9.68914 3.99566 9.68914C4.22027 9.68914 4.26879 9.71612 4.58923 10.0195C4.82275 10.2406 4.96198 10.3358 5.01027 10.3071C5.04994 10.2836 5.46566 9.92038 5.93407 9.5C6.40247 9.07963 6.84687 8.69426 6.92159 8.64354C7.08978 8.52944 7.31769 8.52571 7.52929 8.63358ZM16.1319 9.76499C16.2885 9.91946 16.3187 9.98821 16.3187 10.1911C16.3187 10.4928 16.17 10.694 15.8904 10.7706C15.6234 10.8436 10.4268 10.8468 10.1694 10.774C9.62423 10.6198 9.50302 9.96264 9.96813 9.68291C10.1281 9.5868 10.2971 9.58116 13.0412 9.581L15.9451 9.58078L16.1319 9.76499ZM7.67857 14.1619C7.86973 14.36 7.90659 14.5615 7.7956 14.8017C7.72775 14.9486 5.40582 17.0407 5.18033 17.1581C4.88874 17.3099 4.69352 17.2134 4.07648 16.6121C3.47423 16.0252 3.32659 15.7991 3.38527 15.5536C3.46462 15.2213 3.86775 14.9835 4.1839 15.0825C4.25407 15.1044 4.46016 15.2625 4.64198 15.4336L4.97253 15.7449L5.90659 14.9059C6.42033 14.4444 6.91484 14.0333 7.00549 13.9924C7.23753 13.8877 7.47049 13.9464 7.67857 14.1619ZM15.9561 15.02C16.3507 15.1826 16.4513 15.6633 16.1584 15.9866L15.9981 16.1635L13.0814 16.1785C9.86088 16.1949 9.92896 16.2015 9.74786 15.8562C9.5894 15.5541 9.75434 15.13 10.0824 14.9962C10.1429 14.9715 11.4479 14.9498 12.9825 14.9479C15.2505 14.9451 15.8071 14.9586 15.9561 15.02ZM7.62912 19.4699C7.71989 19.5452 7.81027 19.6793 7.83 19.7679C7.91027 20.1282 7.84995 20.2049 6.60253 21.3276C5.9478 21.9168 5.35093 22.4406 5.27621 22.4913C5.11154 22.6033 4.82747 22.6106 4.62637 22.508C4.37066 22.3776 3.42346 21.3741 3.38247 21.1902C3.31231 20.8752 3.56885 20.4985 3.87363 20.4689C4.16006 20.4412 4.25654 20.4861 4.59258 20.8043L4.94484 21.1378L5.06692 21.0346C5.13407 20.9778 5.5606 20.6002 6.01484 20.1955C6.46901 19.7908 6.89011 19.4319 6.95055 19.398C7.14544 19.2886 7.44934 19.3207 7.62912 19.4699ZM16.0064 20.4229C16.2192 20.5302 16.3162 20.7001 16.3175 20.9677C16.3185 21.1791 16.2908 21.2485 16.1496 21.3876L15.9805 21.5543H13.022H10.0634L9.89621 21.4156C9.59901 21.1691 9.61643 20.714 9.93242 20.4689C10.0651 20.3661 10.1697 20.3624 12.9781 20.3624C15.0118 20.3624 15.9224 20.3806 16.0064 20.4229Z" fill="#1E46A4"/>
</svg>
