<svg width="16" height="18" viewBox="0 0 16 18" fill="none" xmlns="http://www.w3.org/2000/svg">
<path d="M8.45316 12.8636C8.16084 13.2151 8.16084 13.7849 8.45316 14.1364C8.74548 14.4879 9.21943 14.4879 9.51175 14.1364L13.2544 9.6364C13.5468 9.28492 13.5468 8.71507 13.2544 8.3636L9.51175 3.8636C9.21943 3.51213 8.74548 3.51213 8.45316 3.8636C8.16084 4.21508 8.16084 4.78492 8.45316 5.1364L10.918 8.1L0.706953 8.1C0.316513 8.1 0 8.50294 0 9C0 9.49706 0.316513 9.9 0.706953 9.9H10.918L8.45316 12.8636Z" fill="#0F172B"/>
<path fill-rule="evenodd" clip-rule="evenodd" d="M15.1579 0C15.623 0 16 0.402944 16 0.9V17.1C16 17.5971 15.623 18 15.1579 18C14.6928 18 14.3158 17.5971 14.3158 17.1V0.9C14.3158 0.402944 14.6928 0 15.1579 0Z" fill="#0F172B"/>
</svg>
