<svg width="16" height="20" viewBox="0 0 16 20" fill="none" xmlns="http://www.w3.org/2000/svg">
<path d="M12.2929 7.29289L9 10.5858L9 1C9 0.447715 8.55229 0 8 0C7.44772 0 7 0.447715 7 1L7 10.5858L3.70711 7.29289C3.31658 6.90237 2.68342 6.90237 2.29289 7.29289C1.90237 7.68342 1.90237 8.31658 2.29289 8.70711L7.29289 13.7071C7.68342 14.0976 8.31658 14.0976 8.70711 13.7071L13.7071 8.70711C14.0976 8.31658 14.0976 7.68342 13.7071 7.29289C13.3166 6.90237 12.6834 6.90237 12.2929 7.29289Z" fill="#0F172B"/>
<path d="M2 14C2 13.4477 1.55228 13 1 13C0.447715 13 0 13.4477 0 14V17C0 18.6569 1.34315 20 3 20H13C14.6569 20 16 18.6569 16 17V14C16 13.4477 15.5523 13 15 13C14.4477 13 14 13.4477 14 14V17C14 17.5523 13.5523 18 13 18H3C2.44772 18 2 17.5523 2 17V14Z" fill="#0F172B"/>
</svg>
