<svg width="20" height="20" viewBox="0 0 20 20" fill="none" xmlns="http://www.w3.org/2000/svg">
<path fill-rule="evenodd" clip-rule="evenodd" d="M0 3.4907C0 1.66713 1.47829 0.188837 3.30186 0.188837H8.80496C9.41282 0.188837 9.90558 0.681601 9.90558 1.28946C9.90558 1.89731 9.41282 2.39008 8.80496 2.39008H3.30186C2.694 2.39008 2.20124 2.88284 2.20124 3.4907V16.6981C2.20124 17.306 2.694 17.7988 3.30186 17.7988H16.5093C17.1172 17.7988 17.6099 17.306 17.6099 16.6981V10.0944C17.6099 9.48656 18.1027 8.9938 18.7105 8.9938C19.3184 8.9938 19.8112 9.48656 19.8112 10.0944V16.6981C19.8112 18.5217 18.3329 20 16.5093 20H3.30186C1.47829 20 0 18.5217 0 16.6981V3.4907Z" fill="#0F172B"/>
<path d="M15.7546 0.644728C16.6142 -0.214909 18.008 -0.214909 18.8676 0.644728C19.7273 1.50437 19.7273 2.89811 18.8676 3.75775L11.0851 11.5403C10.6553 11.9701 9.95838 11.9701 9.52856 11.5403L7.97205 9.9838C7.54223 9.55398 7.54223 8.85711 7.97205 8.42729L15.7546 0.644728Z" fill="#0F172B"/>
<path d="M6.11627 11.1635C5.87065 10.9179 5.45085 10.9132 5.35256 11.2464L4.63355 13.6837C4.40721 14.4509 5.06048 15.1042 5.82772 14.8778L8.26498 14.1588C8.59814 14.0605 8.59351 13.6407 8.3479 13.3951L6.11627 11.1635Z" fill="#0F172B"/>
</svg>
