<svg width="22" height="16" viewBox="0 0 22 16" fill="none" xmlns="http://www.w3.org/2000/svg">
<path fill-rule="evenodd" clip-rule="evenodd" d="M2.02633 8C2.60397 8.79665 3.78786 10.2978 5.34679 11.6047C6.96319 12.9598 8.85592 14 10.8101 14C12.7643 14 14.657 12.9598 16.2734 11.6047C17.8323 10.2978 19.0162 8.79665 19.5939 8C19.0162 7.20335 17.8323 5.70224 16.2734 4.39529C14.657 3.04015 12.7643 2 10.8101 2C8.85592 2 6.96319 3.04015 5.34679 4.39529C3.78786 5.70224 2.60397 7.20335 2.02633 8ZM4.06187 2.86265C5.8236 1.38568 8.16638 0 10.8101 0C13.4538 0 15.7966 1.38568 17.5583 2.86264C19.3371 4.35393 20.6533 6.04714 21.2614 6.893C21.7398 7.55837 21.7398 8.44163 21.2614 9.107C20.6533 9.95286 19.3371 11.6461 17.5583 13.1374C15.7966 14.6143 13.4538 16 10.8101 16C8.16638 16 5.8236 14.6143 4.06187 13.1374C2.28306 11.6461 0.96691 9.95286 0.358776 9.107C-0.119592 8.44163 -0.119592 7.55837 0.358776 6.893C0.966909 6.04714 2.28306 4.35393 4.06187 2.86265Z" fill="#0F172B"/>
<path fill-rule="evenodd" clip-rule="evenodd" d="M10.8101 10C11.9147 10 12.8101 9.10457 12.8101 8C12.8101 6.89543 11.9147 6 10.8101 6C9.70553 6 8.8101 6.89543 8.8101 8C8.8101 9.10457 9.70553 10 10.8101 10ZM10.8101 12C13.0192 12 14.8101 10.2091 14.8101 8C14.8101 5.79086 13.0192 4 10.8101 4C8.60096 4 6.8101 5.79086 6.8101 8C6.8101 10.2091 8.60096 12 10.8101 12Z" fill="#0F172B"/>
</svg>
