<svg width="22" height="19" viewBox="0 0 22 19" fill="none" xmlns="http://www.w3.org/2000/svg">
<path d="M15.1555 2.0852C13.8978 1.43944 12.4962 1.00323 11 1.00323C8.30983 1.00323 5.92589 2.41325 4.13322 3.91616C2.32316 5.43364 0.983893 7.15659 0.365078 8.01731C-0.121693 8.69437 -0.121692 9.59314 0.365078 10.2702C0.904566 11.0206 1.99163 12.4263 3.46084 13.7799L4.90122 12.3395C3.58158 11.1351 2.58111 9.85978 2.06192 9.14375C2.64971 8.33311 3.85439 6.80564 5.4407 5.47573C7.0855 4.09679 9.01147 3.03836 11 3.03836C11.8948 3.03836 12.777 3.2527 13.6266 3.61413L15.1555 2.0852Z" fill="#0F172B"/>
<path fill-rule="evenodd" clip-rule="evenodd" d="M19.8559 0.298222C20.2535 -0.0994074 20.8982 -0.0994074 21.2959 0.298222C21.6935 0.695852 21.6935 1.34055 21.2959 1.73818L18.5325 4.50155C20.0051 5.85701 21.0946 7.2658 21.6349 8.01731C22.1217 8.69437 22.1217 9.59314 21.6349 10.2702C21.0161 11.1309 19.6768 12.8539 17.8667 14.3714C16.0741 15.8743 13.6901 17.2843 11 17.2843C9.50038 17.2843 8.09594 16.8461 6.83603 16.198L5.00822 18.0258C4.61059 18.4234 3.96591 18.4234 3.56828 18.0258C3.17065 17.6282 3.17065 16.9835 3.56828 16.5858C3.56828 16.5858 17.8133 2.34084 19.8559 0.298222ZM17.0921 5.94194L14.9353 8.09874C15.0236 8.43222 15.0707 8.78248 15.0707 9.14375C15.0707 11.3917 13.2484 13.214 11.0004 13.214C10.6392 13.214 10.2889 13.167 9.9554 13.0786L8.36444 14.6696C9.21678 15.0333 10.102 15.2491 11 15.2491C12.9885 15.2491 14.9145 14.1907 16.5593 12.8118C18.1456 11.4819 19.3503 9.9544 19.938 9.14375C19.418 8.42652 18.415 7.14814 17.0921 5.94194Z" fill="#0F172B"/>
<path d="M12.0347 5.20606C11.7044 5.11956 11.3578 5.07349 11.0004 5.07349C8.75249 5.07349 6.93017 6.89581 6.93017 9.14375C6.93017 9.50112 6.97623 9.84775 7.06273 10.178L12.0347 5.20606Z" fill="#0F172B"/>
</svg>
