<svg width="20" height="16" viewBox="0 0 20 16" fill="none" xmlns="http://www.w3.org/2000/svg">
<path fill-rule="evenodd" clip-rule="evenodd" d="M3 2C2.44772 2 2 2.44772 2 3V13C2 13.5523 2.44772 14 3 14H17C17.5523 14 18 13.5523 18 13V7.5C18 6.94772 17.5523 6.5 17 6.5H15.0704C14.0673 6.5 13.1306 5.9987 12.5742 5.1641L10.7617 2.4453C10.5762 2.1671 10.264 2 9.92963 2H3ZM0 3C0 1.34315 1.34315 0 3 0H9.92963C10.9327 0 11.8694 0.501303 12.4258 1.3359L14.2383 4.0547C14.4238 4.3329 14.736 4.5 15.0704 4.5H17C18.6569 4.5 20 5.84315 20 7.5V13C20 14.6569 18.6569 16 17 16H3C1.34315 16 0 14.6569 0 13V3Z" fill="#040921"/>
</svg>
