<svg width="21" height="22" viewBox="0 0 21 22" fill="none" xmlns="http://www.w3.org/2000/svg">
<path d="M2.04673 12.2876H2.34404C2.90811 12.2876 3.36538 12.7449 3.36538 13.3089V19.9322C3.36538 20.4962 3.82264 20.9535 4.38671 20.9535H7.24646C7.81053 20.9535 8.2678 20.4962 8.2678 19.9322V15.7849C8.2678 15.2208 8.72506 14.7636 9.28913 14.7636H12.1489C12.7129 14.7636 13.1702 15.2208 13.1702 15.7849V19.9322C13.1702 20.4962 13.6275 20.9535 14.1916 20.9535H17.0513C17.6154 20.9535 18.0726 20.4962 18.0726 19.9322V13.2387C18.0726 12.7134 18.4984 12.2876 19.0237 12.2876C19.8435 12.2876 20.2792 11.3196 19.7356 10.7059L11.462 1.36551C11.0632 0.915373 10.3639 0.905423 9.95248 1.34403L1.30177 10.5676C0.690035 11.2198 1.1525 12.2876 2.04673 12.2876Z" stroke="#1E46A4" stroke-width="2"/>
</svg>
