<svg width="14" height="11" viewBox="0 0 14 11" fill="none" xmlns="http://www.w3.org/2000/svg">
<path d="M2.88483 1.375C2.88483 2.13439 2.27281 2.75 1.51784 2.75C0.762873 2.75 0.15085 2.13439 0.15085 1.375C0.15085 0.615609 0.762873 0 1.51784 0C2.27281 0 2.88483 0.615609 2.88483 1.375Z" fill="#0F172B"/>
<path fill-rule="evenodd" clip-rule="evenodd" d="M10.2172 2.7341C9.68976 1.82454 8.38318 1.82453 7.85569 2.7341L5.90706 6.09419L5.07608 4.72644C4.54305 3.8491 3.27625 3.8491 2.74322 4.72644L0.202707 8.908C-0.353953 9.82424 0.301612 11 1.36914 11L5.61882 11L12.6309 11C13.686 11 14.3433 9.84882 13.8117 8.93217L10.2172 2.7341ZM5.12467 7.44329L4.26121 8.93217C4.13149 9.15586 4.07256 9.39351 4.07294 9.625H1.36914L3.90965 5.44344L5.12467 7.44329ZM5.44199 9.62499L9.03647 3.42693L12.6309 9.62499L5.44199 9.62499Z" fill="#0F172B"/>
</svg>
