<svg width="20" height="17" viewBox="0 0 20 17" fill="none" xmlns="http://www.w3.org/2000/svg">
<path fill-rule="evenodd" clip-rule="evenodd" d="M0 2.83333C0 1.26853 1.22104 0 2.72727 0H17.2727C18.779 0 20 1.26853 20 2.83333V14.1667C20 15.7315 18.779 17 17.2727 17H2.72727C1.22104 17 0 15.7315 0 14.1667V2.83333ZM2.72727 1.88889C2.2252 1.88889 1.81818 2.31173 1.81818 2.83333V14.1667C1.81818 14.6883 2.2252 15.1111 2.72727 15.1111H17.2727C17.7748 15.1111 18.1818 14.6883 18.1818 14.1667V2.83333C18.1818 2.31173 17.7748 1.88889 17.2727 1.88889H2.72727Z" fill="#0F172B"/>
</svg>
