<svg width="18" height="18" viewBox="0 0 18 18" fill="none" xmlns="http://www.w3.org/2000/svg">
<path d="M5.77292 10.8698L10.8692 5.77356C11.244 5.39877 11.8516 5.39877 12.2264 5.77356C12.6012 6.14835 12.6012 6.756 12.2264 7.13079L7.13015 12.227C6.75534 12.6015 6.14761 12.6017 5.77292 12.227C5.39823 11.8524 5.39844 11.2446 5.77292 10.8698Z" fill="black"/>
<path d="M2.79951 10.9525C1.62646 12.1255 1.62588 14.028 2.79884 15.2011C3.97197 16.3742 5.87437 16.3735 7.04749 15.2004L9.68111 12.5668C10.0559 12.192 10.6636 12.192 11.0383 12.5668C11.4131 12.9416 11.4131 13.5493 11.0383 13.9241L8.40472 16.5577C6.48202 18.4803 3.36432 18.481 1.44161 16.5583C-0.480936 14.6356 -0.480358 11.5179 1.44227 9.59522L4.07589 6.9616C4.45068 6.58681 5.05833 6.58681 5.43312 6.9616C5.80791 7.33639 5.80791 7.94405 5.43312 8.31884L2.79951 10.9525Z" fill="black"/>
<path d="M16.5581 1.44188C18.4807 3.36454 18.4806 6.48161 16.5581 8.40433L13.9244 11.0379C13.5497 11.4127 12.942 11.4127 12.5672 11.0379C12.1924 10.6632 12.1924 10.0555 12.5672 9.68071L15.2008 7.04709C16.3738 5.87396 16.3739 3.9722 15.2008 2.79911C14.0277 1.62619 12.1259 1.62619 10.9529 2.79911L8.31923 5.43273C7.94444 5.80752 7.33679 5.80752 6.962 5.43273C6.58721 5.05794 6.58721 4.45028 6.962 4.07549L9.59562 1.44188C11.5183 -0.480626 14.6354 -0.480626 16.5581 1.44188Z" fill="black"/>
</svg>
