<svg width="20" height="20" viewBox="0 0 20 20" fill="none" xmlns="http://www.w3.org/2000/svg">
<path d="M12.1896 11.8355L16.9925 7.0293L15.448 5.48276L12.9779 3.00946L8.18713 7.80458C7.74182 7.69047 7.28038 7.63161 6.81292 7.63158C5.34269 7.63158 3.93227 8.21635 2.89266 9.25709L10.7322 17.1053C11.7719 16.0645 12.356 14.6525 12.356 13.1807C12.3559 12.7233 12.2986 12.272 12.1896 11.8355Z" fill="#0F172B"/>
<path d="M6.67799 13.3158L1 19M19 9.03869L15.448 5.48276M10.9701 1L15.448 5.48276M15.448 5.48276L16.9925 7.0293L12.1896 11.8355C12.2986 12.272 12.3559 12.7233 12.356 13.1807C12.356 14.6525 11.7719 16.0645 10.7322 17.1053L2.89266 9.25709C3.93227 8.21635 5.34269 7.63158 6.81292 7.63158C7.28038 7.63161 7.74182 7.69047 8.18713 7.80458L12.9779 3.00946L15.448 5.48276Z" stroke="#0F172B" stroke-width="2" stroke-linecap="round"/>
</svg>
