<svg width="30" height="30" viewBox="0 0 30 30" fill="none" xmlns="http://www.w3.org/2000/svg">
<path d="M30 15C30 23.2843 23.2843 30 15 30C6.71573 30 0 23.2843 0 15C0 6.71573 6.71573 0 15 0C23.2843 0 30 6.71573 30 15Z" fill="#1E46A4"/>
<path d="M15.1935 9L15.8927 8.28499C15.513 7.91373 14.9093 7.904 14.5178 8.26285L15.1935 9ZM14.1935 20C14.1935 20.5523 14.6413 21 15.1935 21C15.7458 21 16.1935 20.5523 16.1935 20H14.1935ZM20.3009 15.3924C20.6958 15.7785 21.3289 15.7714 21.715 15.3765C22.1011 14.9816 22.094 14.3485 21.6991 13.9624L20.3009 15.3924ZM8.32428 13.9403C7.91716 14.3135 7.88965 14.946 8.26285 15.3531C8.63604 15.7603 9.26861 15.7878 9.67572 15.4146L8.32428 13.9403ZM12.0968 11.8387L12.7725 12.5759L12.0968 11.8387ZM18.0968 11.8387L18.7959 11.1237L18.7959 11.1237L18.0968 11.8387ZM15.1935 9L14.5178 8.26285L11.421 11.1016L12.0968 11.8387L12.7725 12.5759L15.8693 9.73715L15.1935 9ZM12.0968 11.8387L11.421 11.1016L8.32428 13.9403L9 14.6774L9.67572 15.4146L12.7725 12.5759L12.0968 11.8387ZM15.1935 9H14.1935V14.5H15.1935H16.1935V9H15.1935ZM15.1935 14.5H14.1935V20H15.1935H16.1935V14.5H15.1935ZM21 14.6774L21.6991 13.9624L18.7959 11.1237L18.0968 11.8387L17.3977 12.5537L20.3009 15.3924L21 14.6774ZM18.0968 11.8387L18.7959 11.1237L15.8927 8.28499L15.1935 9L14.4944 9.71501L17.3977 12.5537L18.0968 11.8387Z" fill="white"/>
</svg>
