<svg width="19" height="18" viewBox="0 0 19 18" fill="none" xmlns="http://www.w3.org/2000/svg">
<path fill-rule="evenodd" clip-rule="evenodd" d="M0 3C0 1.34315 1.34315 0 3 0H4C4.55228 0 5 0.447715 5 1C5 1.55228 4.55228 2 4 2H3C2.44772 2 2 2.44772 2 3V15C2 15.5523 2.44772 16 3 16H15C15.5523 16 16 15.5523 16 15V14C16 13.4477 16.4477 13 17 13C17.5523 13 18 13.4477 18 14V15C18 16.6569 16.6569 18 15 18H3C1.34315 18 0 16.6569 0 15V3Z" fill="#040921"/>
<path fill-rule="evenodd" clip-rule="evenodd" d="M10.0002 2C9.44787 2 9.00015 1.55228 9.00015 1C9.00015 0.447715 9.44787 0 10.0002 0H17.0712C17.6235 0 18.0712 0.447716 18.0712 1L18.0712 8.07107C18.0712 8.62335 17.6235 9.07107 17.0712 9.07107C16.5189 9.07107 16.0712 8.62335 16.0712 8.07107L16.0712 3.34315L8.70711 10.7073C8.31658 11.0978 7.68342 11.0978 7.29289 10.7073C6.90237 10.3167 6.90237 9.68357 7.29289 9.29304L14.5859 2H10.0002Z" fill="#040921"/>
</svg>
