<svg width="16" height="20" viewBox="0 0 16 20" fill="none" xmlns="http://www.w3.org/2000/svg">
<path d="M2.29289 6.70711C2.68342 7.09763 3.31658 7.09763 3.70711 6.70711L7 3.41421V13C7 13.5523 7.44772 14 8 14C8.55229 14 9 13.5523 9 13V3.41421L12.2929 6.70711C12.6834 7.09763 13.3166 7.09763 13.7071 6.70711C14.0976 6.31658 14.0976 5.68342 13.7071 5.29289L8.70711 0.292893C8.61123 0.197016 8.50073 0.124678 8.38278 0.0758786C8.26488 0.0269854 8.13559 0 8 0C7.74408 0 7.48816 0.097631 7.29289 0.292893L2.29289 5.29289C1.90237 5.68342 1.90237 6.31658 2.29289 6.70711Z" fill="#040921"/>
<path d="M2 14C2 13.4477 1.55228 13 1 13C0.447715 13 0 13.4477 0 14V17C0 18.6569 1.34315 20 3 20H13C14.6569 20 16 18.6569 16 17V14C16 13.4477 15.5523 13 15 13C14.4477 13 14 13.4477 14 14V17C14 17.5523 13.5523 18 13 18H3C2.44772 18 2 17.5523 2 17V14Z" fill="#040921"/>
</svg>
