<svg width="69" height="69" viewBox="0 0 69 69" fill="none" xmlns="http://www.w3.org/2000/svg">
<path fill-rule="evenodd" clip-rule="evenodd" d="M59.5398 1.02593C58.3491 1.57801 54.944 4.2518 51.9726 6.9678C49.0016 9.68381 46.3798 11.9062 46.1476 11.9062C45.9149 11.9062 39.5595 10.8102 32.0241 9.47056C24.4888 8.13096 17.6576 7.03492 16.8441 7.03492C15.8347 7.03492 14.5579 7.79971 12.8253 9.44241C10.5802 11.5712 10.38 11.9414 11.0977 12.6374C11.5442 13.0704 16.7197 15.9163 22.5993 18.962C28.4784 22.0071 33.289 24.7831 33.289 25.1312C33.289 25.4792 30.2537 28.7641 26.5439 32.4316L19.7994 39.0998L15.5836 38.6354C6.91702 37.6807 6.65397 37.7402 2.88523 41.509C0.0977733 44.2964 -0.347678 44.987 0.209271 45.6582C0.576782 46.1009 4.0906 47.2251 8.01739 48.1566C17.039 50.2957 17.9169 50.6486 18.5989 52.4114C18.9058 53.2043 19.8237 56.8979 20.6389 60.619C21.4535 64.3401 22.3492 67.6894 22.6291 68.0612C23.6152 69.3721 25.0901 68.7064 27.8224 65.717C30.5341 62.7499 30.5822 62.6378 30.5433 59.3573C30.5216 57.5208 30.3219 54.7437 30.1 53.1854C29.8781 51.6271 29.8851 50.044 30.1151 49.6673C30.3457 49.2906 33.525 46.0068 37.1801 42.3701C41.5713 38.0022 44.0086 35.9405 44.3631 36.2951C44.6581 36.59 47.3411 41.5117 50.3255 47.2327C53.9238 54.131 56.0796 57.6957 56.7269 57.8185C57.9713 58.054 61.2009 54.6841 61.5674 52.7676C61.7173 51.9822 60.7311 44.9253 59.3753 37.0853L56.9104 22.8303L61.9322 17.3084C67.303 11.4017 68.9809 8.53527 68.9998 5.23417C69.009 3.65696 68.6345 2.78554 67.4297 1.58071C65.5288 -0.320169 62.8501 -0.508525 59.5398 1.02593Z" fill="#1E46A4"/>
</svg>
