<svg width="288" height="130" viewBox="0 0 288 130" fill="none" xmlns="http://www.w3.org/2000/svg">
<path fill-rule="evenodd" clip-rule="evenodd" d="M244.304 0.324181C239.853 0.912406 233.643 3.18674 198.7 17.0235L162.312 31.433L152.78 29.078C136.766 25.121 98.2535 19.3287 87.9588 19.3287C79.5706 19.3287 70.7432 22.803 64.969 28.3777C62.1017 31.1456 61.3957 32.2569 61.3957 34.0021C61.3957 37.6886 63.3406 38.8073 79.5854 44.4612C87.9224 47.3627 97.2901 50.6456 100.403 51.7556L106.062 53.7748L83.5602 62.7627C71.1845 67.7062 60.5926 71.7996 60.022 71.86C59.4521 71.9204 51.4183 67.3194 42.1691 61.6366C32.9207 55.9531 24.5385 50.8954 23.5435 50.3965C21.9017 49.5739 20.8683 49.772 12.3784 52.5379C-1.47549 57.051 -2.62953 59.0661 3.65335 67.7733C17.8777 87.4876 25.669 97.6801 28.2358 99.9323C32.7441 103.887 37.6412 105.567 44.5533 105.527C49.5932 105.499 53.9541 104.559 80.9328 97.6889C97.792 93.3954 118.853 87.924 127.735 85.5309C136.618 83.1377 143.943 81.238 144.015 81.3105C144.087 81.3824 140.231 90.6577 135.446 101.922C130.305 114.024 126.746 123.295 126.745 124.585C126.744 127.085 128.527 129.199 131.203 129.869C133.946 130.555 145.355 128.435 150.781 126.231C160.783 122.168 167.211 116.219 180.31 98.9002C188.962 87.4607 195.086 78.0216 199.3 69.6307L202.197 63.8626L213.145 60.0109C242.602 49.6465 266.456 39.6963 275.882 33.8409C284.158 28.6993 287.083 24.4448 287.083 17.5479C287.083 10.8122 283.203 5.27441 276.88 2.98865C275.267 2.40513 268.739 1.46169 262.374 0.89159C251.008 -0.126388 248.341 -0.209654 244.304 0.324181Z" fill="#CCDBFD"/>
</svg>
