<svg width="216" height="198" viewBox="0 0 216 198" fill="none" xmlns="http://www.w3.org/2000/svg">
<path fill-rule="evenodd" clip-rule="evenodd" d="M68.5806 5.88349C67.8016 6.60738 64.4257 11.0381 61.0787 15.7296C57.7318 20.4212 54.8309 24.4848 54.6331 24.7598C54.4349 25.035 48.7664 26.2185 42.0364 27.3899C35.3065 28.5618 29.1678 29.8427 28.3939 30.2364C26.3486 31.2775 23.7744 34.0992 23.16 35.9746C22.8664 36.8692 22.3228 42.567 21.9516 48.6363L21.2765 59.6714L12.0741 66.9417C7.01281 70.9402 2.4004 74.8103 1.82388 75.5415C0.604694 77.088 -0.265345 80.691 0.074097 82.7843C0.204161 83.5851 2.83242 88.8127 5.91578 94.4016L11.5209 104.563L7.61923 114.744C5.4734 120.343 3.58111 125.742 3.4136 126.742C2.98112 129.327 4.49955 133.09 6.74125 134.989C7.71259 135.812 12.8102 139.052 18.0688 142.189L27.6296 147.893L29.9578 159.064C31.2384 165.209 32.6388 170.815 33.0695 171.522C34.1959 173.371 37.2876 175.743 39.2853 176.29C40.2299 176.549 46.467 177.048 53.1457 177.4L65.289 178.038L73.1808 186.412C77.5213 191.018 81.7507 195.232 82.5799 195.778C84.3173 196.923 88.2394 197.727 90.5552 197.413C91.4313 197.294 97.1526 194.89 103.27 192.071C109.387 189.251 114.67 187.032 115.011 187.14C115.351 187.248 120.36 188.855 126.142 190.711C131.924 192.567 137.601 194.194 138.759 194.326C141.497 194.64 145.648 193.354 147.469 191.627C148.235 190.9 151.767 186.234 155.318 181.256L161.774 172.207L174.059 170.07C186.755 167.861 188.14 167.437 190.735 164.967C192.856 162.947 193.354 160.545 194.067 148.908L194.747 137.791L203.864 130.642C213.742 122.897 214.944 121.686 215.685 118.737C216.538 115.348 215.967 113.758 210.037 102.986L204.507 92.9441L208.286 83.0952C212.849 71.2032 213.175 69.7249 211.959 66.4527C210.742 63.1804 209.498 62.1901 197.951 55.3019L188.388 49.5974L186.041 38.3716C183.534 26.3794 183.074 25.1939 180.029 22.8991C177.507 20.9977 175.716 20.7039 162.749 20.0662L150.754 19.4763L142.803 11.0403C134.481 2.21014 132.484 0.582849 129.455 0.162953C125.752 -0.350509 124.37 0.0850743 112.831 5.40511L101.666 10.5532L90.5144 6.97418C84.3811 5.00535 78.4691 3.27291 77.3772 3.1233C74.8029 2.77117 70.4648 4.13232 68.5806 5.88349Z" fill="#CCDBFD"/>
</svg>
