<svg width="82" height="75" viewBox="0 0 82 75" fill="none" xmlns="http://www.w3.org/2000/svg">
<path fill-rule="evenodd" clip-rule="evenodd" d="M33.0527 0.0820903C22.1219 0.881829 12.4354 7.16285 7.2488 16.8139C5.5362 20.0004 4.17147 24.2808 3.79674 27.6403C3.5546 29.811 3.50929 30.029 3.30086 30.029C2.92152 30.029 1.58317 31.1866 1.04692 31.9783C-0.0147933 33.5463 -0.0372103 33.7598 0.015732 41.8404L0.0631099 49.059L0.489192 49.9696C1.03992 51.1464 2.13947 52.3153 3.19815 52.8491C4.26527 53.3872 5.69725 53.5904 8.44962 53.5944L10.6357 53.5976V41.4948V29.392H9.52278C8.21877 29.392 8.26615 29.5102 8.65948 27.2422C10.1307 18.7576 15.4962 11.5159 23.1161 7.73041C28.2334 5.18803 31.0202 4.7087 40.684 4.7087C46.5284 4.7087 49.3435 4.87352 51.6245 5.34903C56.1301 6.28859 60.7959 8.65978 64.0974 11.688C68.7964 15.998 71.6359 21.1516 72.724 27.345C73.1014 29.4933 73.145 29.392 71.8453 29.392H70.7324V41.4948V53.5976L72.9184 53.5944C76.854 53.5888 78.3058 53.1791 79.7062 51.6796C80.1168 51.2399 80.6445 50.4704 80.8789 49.9696L81.3049 49.059L81.3549 41.8929C81.3987 35.5932 81.3727 34.6067 81.139 33.7334C80.8054 32.4865 79.882 31.174 78.8842 30.5284C77.7638 29.8035 77.7278 29.7568 77.7271 29.0275C77.7262 28.0048 77.2947 25.5306 76.7754 23.5706C73.8506 12.5282 64.9898 3.77025 53.9188 0.97897C50.635 0.151044 49.5391 0.0628215 41.8764 0.00963292C37.9415 -0.0175983 33.9708 0.0148881 33.0527 0.0820903ZM20.4133 22.1318C18.0839 22.71 16.2571 24.5297 15.627 26.8998C15.4493 27.5683 15.4094 30.6055 15.411 43.3261C15.4123 53.4323 15.4706 59.1825 15.5763 59.6423C15.9509 61.2706 17.2296 63.0166 18.6645 63.859C20.03 64.6606 20.6845 64.7449 25.5695 64.746L30.1115 64.7469L34.1656 69.5498C36.3954 72.1914 38.4163 74.498 38.6563 74.6754C39.2105 75.0848 40.4724 75.1122 41.0584 74.7276C41.285 74.5788 43.3022 72.2898 45.541 69.6408L49.6116 64.8245L55.2832 64.7441C60.766 64.6665 60.9856 64.6514 61.8796 64.2908C63.2448 63.7402 64.6547 62.3544 65.34 60.8898L65.8833 59.7286L65.9313 43.9631C65.9658 32.6419 65.9281 27.9284 65.7979 27.2422C65.3157 24.7004 63.2832 22.6253 60.7482 22.0864C59.4863 21.8182 21.5046 21.8609 20.4133 22.1318ZM31.8331 34.0681C32.5133 34.3527 33.1727 35.1532 33.3039 35.8531C33.447 36.6172 33.0034 37.7321 32.3792 38.1773C31.6339 38.7089 30.4178 38.7562 29.714 38.281C28.1776 37.2437 28.2637 35.0666 29.875 34.2132C30.6625 33.796 31.1046 33.7633 31.8331 34.0681ZM50.2755 34.0681C50.9556 34.3527 51.6151 35.1532 51.7463 35.8531C51.8894 36.6172 51.4458 37.7321 50.8216 38.1773C50.0763 38.7089 48.8602 38.7562 48.1564 38.281C46.6199 37.2437 46.7061 35.0666 48.3174 34.2132C49.1049 33.796 49.547 33.7633 50.2755 34.0681ZM32.1358 44.9866C35.8469 47.968 39.2361 48.9977 42.8768 48.25C45.0177 47.8104 46.9557 46.8157 49.2265 44.991C50.5812 43.9026 51.8156 43.9594 52.8212 45.1565C53.6749 46.1727 53.5244 47.3723 52.4072 48.4558C51.4285 49.4049 49.5106 50.733 48.136 51.4133C41.9317 54.4839 35.595 53.7009 29.7291 49.1386C28.5868 48.2502 27.9651 47.3524 27.9651 46.5907C27.9651 45.9215 28.5672 44.9216 29.196 44.5469C30.1253 43.9929 31.0759 44.1351 32.1358 44.9866Z" fill="#1E46A4"/>
</svg>
