<svg width="63" height="82" viewBox="0 0 63 82" fill="none" xmlns="http://www.w3.org/2000/svg">
<path fill-rule="evenodd" clip-rule="evenodd" d="M29.6003 0.245604C27.6492 0.762544 25.9373 2.17444 25.069 3.98262C24.7985 4.54581 24.5771 5.10269 24.5771 5.21993C24.5769 5.38462 23.6281 5.43326 20.4098 5.43326H16.2426L15.7367 5.93211L15.2308 6.43096V9.86591C15.2308 13.7007 15.3298 14.1299 16.2898 14.46C17.065 14.7264 45.935 14.7264 46.7102 14.46C47.6702 14.1299 47.7692 13.7007 47.7692 9.86591V6.43096L47.2633 5.93211L46.7574 5.43326H42.5902C39.3719 5.43326 38.4231 5.38462 38.4229 5.21993C38.4229 5.10269 38.2015 4.54581 37.931 3.98262C36.4683 0.936962 32.9492 -0.641676 29.6003 0.245604ZM2.90752 9.17933C1.87079 9.37798 0.959712 10.0866 0.453981 11.0872L0 11.9855L0.00103789 45.3593C0.00155712 68.2151 0.0593658 78.9374 0.184327 79.3808C0.43252 80.2621 1.638 81.4649 2.50962 81.7011C3.48837 81.9663 59.5116 81.9663 60.4904 81.7011C61.362 81.4649 62.5675 80.2621 62.8157 79.3808C62.9406 78.9374 62.9984 68.2108 62.999 45.3453L63 11.9574L62.5164 11.0447C62.1644 10.3803 61.803 9.99169 61.1889 9.61708L60.3452 9.10253L56.0691 9.04485L51.7929 8.98716L51.7197 11.6048C51.6531 13.9862 51.6053 14.3105 51.191 15.1986C50.5952 16.4754 49.4079 17.6028 48.1834 18.0545C47.2332 18.4051 47.0513 18.4085 31.2702 18.3636L15.3173 18.3184L14.4652 17.9048C13.3226 17.3504 12.3492 16.3562 11.8033 15.1863C11.3961 14.3136 11.3466 13.9762 11.2806 11.6198L11.2079 9.0172L7.37792 9.03682C5.27158 9.04758 3.2599 9.11175 2.90752 9.17933ZM23.7173 27.1958C24.7386 27.7166 25.0356 29.2198 24.2815 30.0525C23.6574 30.7415 16.8637 36.7859 16.497 36.9782C16.289 37.0874 15.7907 37.1767 15.3893 37.1767C14.6948 37.1767 14.5703 37.0896 12.7854 35.3554C10.7226 33.3509 10.399 32.7918 10.7299 31.8035C11.0117 30.9615 11.6495 30.5208 12.5863 30.5208C13.2939 30.5208 13.4467 30.6058 14.4561 31.5615C15.1917 32.258 15.6302 32.5577 15.7824 32.4674C15.9073 32.3933 17.2168 31.2492 18.6923 29.925C20.1678 28.6008 21.5676 27.3869 21.803 27.2272C22.3328 26.8678 23.0507 26.856 23.7173 27.1958ZM50.8154 30.7597C51.3088 31.2463 51.4038 31.4629 51.4038 32.102C51.4038 33.0524 50.9355 33.6861 50.0547 33.9272C49.2137 34.1575 32.8443 34.1674 32.0336 33.9382C30.3163 33.4525 29.9345 31.3823 31.3996 30.5012C31.9034 30.1984 32.436 30.1807 41.0798 30.1802L50.2269 30.1795L50.8154 30.7597ZM24.1875 44.6101C24.7896 45.2339 24.9058 45.8687 24.5562 46.6253C24.3424 47.0881 17.0283 53.6781 16.318 54.048C15.3995 54.5263 14.7846 54.2222 12.8409 52.3282C10.9438 50.4794 10.4788 49.7672 10.6636 48.9938C10.9135 47.9471 12.1834 47.198 13.1793 47.5098C13.4003 47.579 14.0495 48.0768 14.6222 48.6159L15.6635 49.5964L18.6058 46.9535C20.224 45.4998 21.7817 44.2049 22.0673 44.0761C22.7982 43.7464 23.5321 43.9312 24.1875 44.6101ZM50.2617 47.3131C51.5046 47.8252 51.8215 49.3395 50.899 50.3577L50.3939 50.9151L41.2065 50.9622C31.0618 51.0141 31.2762 51.0347 30.7057 49.9471C30.2066 48.9953 30.7262 47.6595 31.7596 47.238C31.95 47.1603 36.0609 47.0919 40.895 47.0859C48.0391 47.0772 49.7923 47.1197 50.2617 47.3131ZM24.0317 61.3302C24.3177 61.5674 24.6024 61.9898 24.6645 62.2688C24.9174 63.4039 24.7273 63.6454 20.798 67.1819C18.7356 69.038 16.8554 70.6878 16.6201 70.8477C16.1013 71.2005 15.2065 71.2234 14.5731 70.9003C13.7676 70.4893 10.7839 67.3283 10.6548 66.7491C10.4338 65.757 11.2419 64.5702 12.2019 64.477C13.1042 64.3897 13.4081 64.5313 14.4666 65.5336L15.5762 66.5842L15.9608 66.259C16.1723 66.0799 17.5159 64.8906 18.9467 63.6159C20.3774 62.341 21.7038 61.2105 21.8942 61.1037C22.5081 60.759 23.4654 60.8603 24.0317 61.3302ZM50.4201 64.3322C51.0904 64.6702 51.3959 65.2053 51.4 66.0483C51.4032 66.7141 51.3159 66.9327 50.8713 67.371L50.3387 67.8961H41.0192H31.6996L31.1731 67.4592C30.2369 66.6825 30.2918 65.2491 31.2871 64.477C31.7049 64.1531 32.0345 64.1415 40.8809 64.1415C47.2872 64.1415 50.1556 64.1989 50.4201 64.3322Z" fill="#1E46A4"/>
</svg>
