<svg width="451" height="153" viewBox="0 0 451 153" fill="none" xmlns="http://www.w3.org/2000/svg">
<path d="M299.083 117.443C288.454 117.677 277.282 114.695 270.598 110.121C254.789 99.3009 251.849 74.1357 243.803 58.0536C237.118 44.691 234.75 39.7843 227.095 26.9766C225.735 24.7011 216.24 14.4273 213.765 12.9478C202.913 6.46248 187.857 5.39752 175.876 3.65926C163.894 1.921 155.883 2.44061 144.47 4.77314C132.714 7.17588 124.453 12.0588 116.173 20.5645C102.075 35.0476 91.8457 54.156 80.4372 70.7683C75.3178 78.2229 70.7753 85.305 63.0484 90.3934C55.8469 95.1359 46.3334 97.6068 38.0378 99.3389C26.2827 101.793 14.7422 101.53 2.80387 101.53M299.083 117.443C308.214 117.241 316.944 114.668 322.088 108.693C327.536 102.364 331.963 97.7137 332.541 89.4959C333.028 82.5795 331.604 73.978 326.822 68.0607C323.259 63.6513 313.013 63.3974 308.279 64.5485C300.165 66.5212 295.738 74.9486 293.861 82.4093C290.444 95.9872 292.798 107.411 299.083 117.443ZM299.083 117.443C302.44 122.8 306.919 127.761 312.239 132.44C329.341 147.481 358.853 149.62 379.976 149.419C396.779 149.258 412.445 140.801 426.975 131.831C434.77 127.019 441.782 119.671 448.196 113.26" stroke="#CCDBFD" stroke-width="5.6" stroke-linecap="round" stroke-dasharray="11.2 11.2"/>
</svg>
