<svg width="292" height="84" viewBox="0 0 292 84" fill="none" xmlns="http://www.w3.org/2000/svg">
<path d="M2.80161 73.1722C6.0126 66.3981 12.5382 54.7473 17.0869 48.6298C22.8709 40.851 35.0546 34.3793 44.229 31.0594C58.9983 25.715 68.4415 25.737 84.1296 25.1528C94.4399 24.7688 105.195 24.6186 114.928 28.485C124.021 32.0972 129.778 39.7471 133.389 48.6298C136.767 56.939 141.496 79.0421 127.903 80.9827C115.068 82.815 103.528 72.7632 104.622 59.9594C106.196 41.5245 120.926 27.2698 136.33 18.9124C160.81 5.63031 189.013 1.85437 216.509 2.94802C230.697 3.51233 241.682 7.79953 253.31 15.6711C260.979 20.8622 269.707 27.2779 275.651 34.2714C281.47 41.1183 288.507 57.1123 288.507 57.1123" stroke="#CCDBFD" stroke-width="5.59896" stroke-linecap="round" stroke-linejoin="round" stroke-dasharray="11.2 11.2"/>
</svg>
